<?xml version="1.0" encoding="UTF-8"?>
<svg xmlns="http://www.w3.org/2000/svg" xmlns:xlink="http://www.w3.org/1999/xlink" width="1010px" height="727px" viewBox="0 0 1010 727" version="1.1">
<g id="surface1">
<path style=" stroke:none;fill-rule:nonzero;fill:rgb(90.196078%,90.196078%,90.196078%);fill-opacity:1;" d="M 402.472656 710.84375 C 402.472656 702.113281 312.375 695.039062 201.234375 695.039062 C 90.097656 695.039062 0 702.113281 0 710.84375 C 0 719.570312 90.097656 726.644531 201.234375 726.644531 C 312.375 726.644531 402.472656 719.570312 402.472656 710.84375 Z M 402.472656 710.84375 "/>
<path style=" stroke:none;fill-rule:nonzero;fill:rgb(18.431373%,18.039216%,25.490196%);fill-opacity:1;" d="M 153.820312 161.230469 C 188.84375 145.828125 232.460938 155.585938 275.058594 162.359375 C 275.457031 154.15625 280.261719 144.175781 275.226562 138.453125 C 269.113281 131.5 269.675781 124.195312 273.355469 116.847656 C 282.765625 98.058594 269.285156 78.070312 255.671875 61.445312 C 249.449219 53.867188 240.101562 49.808594 230.511719 50.527344 L 205.296875 52.390625 C 192.730469 53.316406 182.042969 62.214844 178.480469 74.707031 C 172.460938 83.175781 169.238281 91.617188 171.269531 100.019531 C 162.25 106.390625 160.734375 114.085938 164.785156 122.757812 C 168.222656 128.21875 168.1875 133.53125 164.628906 138.699219 C 159.960938 145.289062 156.382812 152.636719 154.046875 160.4375 Z M 153.820312 161.230469 "/>
<path style=" stroke:none;fill-rule:nonzero;fill:rgb(18.431373%,18.039216%,25.490196%);fill-opacity:1;" d="M 986.066406 628.175781 L 272.292969 628.175781 C 259.074219 628.175781 248.359375 617.09375 248.359375 603.425781 C 507.101562 572.332031 760.984375 572.332031 1010 603.425781 C 1010 617.09375 999.285156 628.175781 986.066406 628.175781 Z M 986.066406 628.175781 "/>
<path style=" stroke:none;fill-rule:nonzero;fill:rgb(24.705882%,23.921569%,33.72549%);fill-opacity:1;" d="M 1010 604.882812 L 248.359375 603.425781 L 336.632812 449.839844 L 337.054688 449.113281 L 337.054688 110.625 C 337.054688 93.347656 350.597656 79.339844 367.308594 79.339844 L 886.828125 79.339844 C 903.539062 79.339844 917.085938 93.347656 917.082031 110.625 L 917.082031 451.441406 Z M 1010 604.882812 "/>
<path style=" stroke:none;fill-rule:nonzero;fill:rgb(100%,100%,100%);fill-opacity:1;" d="M 366.617188 101.175781 C 361.179688 101.183594 356.769531 105.742188 356.765625 111.367188 L 356.765625 419.996094 C 356.769531 425.621094 361.179688 430.179688 366.617188 430.1875 L 891.742188 430.1875 C 897.183594 430.179688 901.589844 425.621094 901.597656 419.996094 L 901.597656 111.367188 C 901.589844 105.742188 897.183594 101.183594 891.742188 101.175781 Z M 366.617188 101.175781 "/>
<path style=" stroke:none;fill-rule:nonzero;fill:rgb(18.431373%,18.039216%,25.490196%);fill-opacity:1;" d="M 368.820312 470.949219 C 367.171875 470.953125 365.671875 471.941406 364.980469 473.492188 L 337.78125 534.632812 C 337.179688 535.984375 337.285156 537.5625 338.0625 538.816406 C 338.839844 540.070312 340.179688 540.828125 341.621094 540.828125 L 913.601562 540.828125 C 915.066406 540.828125 916.425781 540.042969 917.195312 538.753906 C 917.964844 537.46875 918.035156 535.859375 917.378906 534.507812 L 887.816406 473.363281 C 887.105469 471.878906 885.640625 470.945312 884.039062 470.949219 Z M 368.820312 470.949219 "/>
<path style=" stroke:none;fill-rule:nonzero;fill:rgb(100%,100%,100%);fill-opacity:1;" d="M 633.402344 89.53125 C 633.402344 93.148438 630.566406 96.082031 627.070312 96.082031 C 623.570312 96.082031 620.734375 93.148438 620.734375 89.53125 C 620.734375 85.914062 623.570312 82.980469 627.070312 82.980469 C 630.566406 82.980469 633.402344 85.914062 633.402344 89.53125 Z M 633.402344 89.53125 "/>
<path style=" stroke:none;fill-rule:nonzero;fill:rgb(18.431373%,18.039216%,25.490196%);fill-opacity:1;" d="M 570.847656 552.472656 C 568.9375 552.476562 567.269531 553.800781 566.769531 555.703125 L 559.945312 581.910156 C 559.605469 583.21875 559.871094 584.621094 560.671875 585.699219 C 561.472656 586.78125 562.710938 587.410156 564.023438 587.410156 L 693.777344 587.410156 C 695.140625 587.410156 696.421875 586.730469 697.214844 585.578125 C 698.007812 584.425781 698.214844 582.949219 697.765625 581.617188 L 688.996094 555.410156 C 688.40625 553.652344 686.804688 552.472656 685.003906 552.472656 Z M 570.847656 552.472656 "/>
<path style=" stroke:none;fill-rule:nonzero;fill:rgb(18.431373%,18.039216%,25.490196%);fill-opacity:1;" d="M 917.082031 444.015625 L 917.082031 449.839844 L 336.632812 449.839844 L 337.070312 449.113281 L 337.070312 444.015625 Z M 917.082031 444.015625 "/>
<path style=" stroke:none;fill-rule:nonzero;fill:rgb(42.352941%,38.823529%,100%);fill-opacity:1;" d="M 999.441406 101.90625 C 999.441406 158.1875 955.320312 203.8125 900.894531 203.8125 C 846.464844 203.8125 802.34375 158.1875 802.34375 101.90625 C 802.34375 45.625 846.464844 0 900.894531 0 C 955.320312 0 999.441406 45.625 999.441406 101.90625 Z M 999.441406 101.90625 "/>
<path style=" stroke:none;fill-rule:nonzero;fill:rgb(100%,100%,100%);fill-opacity:1;" d="M 941.71875 146.308594 L 860.066406 146.308594 C 856.957031 146.304688 854.4375 143.699219 854.433594 140.484375 L 854.433594 89.53125 C 854.4375 86.316406 856.957031 83.710938 860.066406 83.707031 L 941.71875 83.707031 C 944.828125 83.710938 947.347656 86.316406 947.351562 89.53125 L 947.351562 140.484375 C 947.347656 143.699219 944.828125 146.304688 941.71875 146.308594 Z M 860.066406 89.53125 L 860.066406 140.484375 L 941.722656 140.484375 L 941.71875 89.53125 Z M 860.066406 89.53125 "/>
<path style=" stroke:none;fill-rule:nonzero;fill:rgb(100%,100%,100%);fill-opacity:1;" d="M 926.234375 89.53125 L 875.550781 89.53125 L 875.550781 66.238281 C 875.550781 49.367188 886.210938 37.121094 900.894531 37.121094 C 915.574219 37.121094 926.234375 49.367188 926.234375 66.238281 Z M 881.183594 83.707031 L 920.601562 83.707031 L 920.601562 66.238281 C 920.601562 52.523438 912.496094 42.945312 900.894531 42.945312 C 889.289062 42.945312 881.183594 52.523438 881.183594 66.238281 Z M 881.183594 83.707031 "/>
<path style=" stroke:none;fill-rule:nonzero;fill:rgb(100%,100%,100%);fill-opacity:1;" d="M 906.523438 113.550781 C 906.523438 116.769531 904.003906 119.375 900.894531 119.375 C 897.78125 119.375 895.261719 116.769531 895.261719 113.550781 C 895.261719 110.335938 897.78125 107.730469 900.894531 107.730469 C 904.003906 107.730469 906.523438 110.335938 906.523438 113.550781 Z M 906.523438 113.550781 "/>
<path style=" stroke:none;fill-rule:nonzero;fill:rgb(90.196078%,90.196078%,90.196078%);fill-opacity:1;" d="M 832.097656 325.503906 L 426.261719 325.503906 C 422.113281 325.496094 418.753906 322.023438 418.746094 317.730469 L 418.746094 213.632812 C 418.753906 209.34375 422.113281 205.867188 426.261719 205.859375 L 832.097656 205.859375 C 836.246094 205.867188 839.609375 209.34375 839.613281 213.632812 L 839.613281 317.730469 C 839.609375 322.023438 836.246094 325.496094 832.097656 325.503906 Z M 426.261719 208.96875 C 423.773438 208.972656 421.757812 211.058594 421.753906 213.632812 L 421.753906 317.730469 C 421.757812 320.304688 423.773438 322.390625 426.261719 322.394531 L 832.097656 322.394531 C 834.585938 322.390625 836.605469 320.304688 836.605469 317.730469 L 836.605469 213.632812 C 836.605469 211.058594 834.585938 208.972656 832.097656 208.96875 Z M 426.261719 208.96875 "/>
<path style=" stroke:none;fill-rule:nonzero;fill:rgb(90.196078%,90.196078%,90.196078%);fill-opacity:1;" d="M 519.9375 261.6875 C 519.9375 279.171875 506.230469 293.34375 489.320312 293.34375 C 472.414062 293.34375 458.707031 279.171875 458.707031 261.6875 C 458.707031 244.203125 472.414062 230.03125 489.320312 230.03125 C 506.230469 230.03125 519.9375 244.203125 519.9375 261.6875 Z M 519.9375 261.6875 "/>
<path style=" stroke:none;fill-rule:nonzero;fill:rgb(90.196078%,90.196078%,90.196078%);fill-opacity:1;" d="M 560.023438 240.582031 C 558.199219 240.582031 556.511719 241.585938 555.601562 243.21875 C 554.6875 244.851562 554.6875 246.867188 555.601562 248.5 C 556.511719 250.132812 558.199219 251.136719 560.023438 251.136719 L 800.5625 251.136719 C 803.378906 251.136719 805.664062 248.773438 805.664062 245.859375 C 805.664062 242.945312 803.378906 240.582031 800.5625 240.582031 Z M 560.023438 240.582031 "/>
<path style=" stroke:none;fill-rule:nonzero;fill:rgb(90.196078%,90.196078%,90.196078%);fill-opacity:1;" d="M 560.023438 272.238281 C 557.207031 272.238281 554.921875 274.601562 554.921875 277.515625 C 554.921875 280.429688 557.207031 282.792969 560.023438 282.792969 L 663.527344 282.792969 C 666.347656 282.792969 668.632812 280.429688 668.632812 277.515625 C 668.632812 274.601562 666.347656 272.238281 663.527344 272.238281 Z M 560.023438 272.238281 "/>
<path style=" stroke:none;fill-rule:nonzero;fill:rgb(100%,72.156863%,72.156863%);fill-opacity:1;" d="M 335.632812 274.375 L 260.613281 315.617188 L 259.660156 281.25 C 284.148438 277.019531 307.445312 269.660156 328.984375 257.679688 L 336.832031 237.636719 C 338.570312 233.191406 342.445312 230.023438 347.027344 229.300781 C 351.613281 228.578125 356.226562 230.402344 359.167969 234.109375 C 363.558594 239.636719 363.054688 247.738281 358.011719 252.636719 Z M 335.632812 274.375 "/>
<path style=" stroke:none;fill-rule:nonzero;fill:rgb(18.431373%,18.039216%,25.490196%);fill-opacity:1;" d="M 152.324219 512.5 C 151.21875 508.300781 151.898438 503.8125 154.195312 500.167969 L 170.675781 474.015625 C 178.753906 461.199219 194.902344 456.792969 208.039062 463.820312 C 201.113281 476.011719 202.078125 486.707031 210.429688 496 C 197.464844 502.546875 185.480469 510.996094 174.851562 521.085938 C 170.914062 523.859375 165.921875 524.496094 161.449219 522.792969 C 156.976562 521.085938 153.578125 517.253906 152.324219 512.5 Z M 152.324219 512.5 "/>
<path style=" stroke:none;fill-rule:nonzero;fill:rgb(18.431373%,18.039216%,25.490196%);fill-opacity:1;" d="M 339.050781 478.304688 C 333.980469 487.042969 324.871094 492.421875 315.015625 492.5 L 205.53125 493.359375 L 200.785156 464.878906 L 249.214844 450.148438 L 208.382812 417.746094 L 253.015625 363.734375 L 334.082031 441.867188 C 343.847656 451.277344 345.917969 466.46875 339.050781 478.304688 Z M 339.050781 478.304688 "/>
<path style=" stroke:none;fill-rule:nonzero;fill:rgb(18.431373%,18.039216%,25.490196%);fill-opacity:1;" d="M 188.4375 673.0625 L 162.796875 673.0625 C 139.777344 509.882812 116.34375 346.25 185.589844 285.175781 L 267.257812 298.925781 L 256.8125 370.609375 L 211.230469 424.617188 Z M 188.4375 673.0625 "/>
<path style=" stroke:none;fill-rule:nonzero;fill:rgb(18.431373%,18.039216%,25.490196%);fill-opacity:1;" d="M 210.976562 710.027344 C 206.917969 711.171875 202.578125 710.46875 199.054688 708.089844 L 171.210938 704.222656 C 158.820312 695.871094 154.558594 679.171875 161.351562 665.585938 C 173.144531 672.75 183.484375 671.75 192.472656 663.113281 C 198.824219 676.371094 209.285156 675.5625 219.277344 686.734375 C 221.964844 690.804688 222.578125 695.964844 220.929688 700.589844 C 219.285156 705.214844 215.574219 708.730469 210.976562 710.027344 Z M 210.976562 710.027344 "/>
<path style=" stroke:none;fill-rule:nonzero;fill:rgb(100%,72.156863%,72.156863%);fill-opacity:1;" d="M 249.214844 176.175781 L 201.734375 164.390625 C 209.621094 147.699219 210.269531 129.125 206.480469 109.398438 L 238.769531 108.417969 C 239.78125 132.949219 242.84375 155.867188 249.214844 176.175781 Z M 249.214844 176.175781 "/>
<path style=" stroke:none;fill-rule:nonzero;fill:rgb(42.352941%,38.823529%,100%);fill-opacity:1;" d="M 262.265625 328.492188 C 227.699219 352.847656 203.277344 329.324219 184.640625 293.03125 C 187.230469 270.824219 183.035156 244.25 175.269531 215.371094 C 168.109375 188.96875 181.664062 161.285156 206.480469 151.625 L 247.316406 169.300781 C 281.988281 198.527344 288.816406 230.183594 275.804688 263.574219 Z M 262.265625 328.492188 "/>
<path style=" stroke:none;fill-rule:nonzero;fill:rgb(100%,72.156863%,72.156863%);fill-opacity:1;" d="M 162.796875 200.726562 L 124.8125 221.347656 L 192.238281 262.589844 L 201.621094 286.519531 C 202.886719 289.746094 202.8125 293.371094 201.417969 296.542969 C 200.023438 299.714844 197.429688 302.152344 194.246094 303.285156 C 190.613281 304.582031 186.609375 304.042969 183.417969 301.835938 C 180.226562 299.625 178.21875 296 177.992188 292.035156 L 177.042969 275.355469 L 91.347656 246.113281 C 85.496094 244.117188 80.859375 239.449219 78.773438 233.453125 C 75.6875 224.585938 78.777344 214.679688 86.292969 209.351562 L 155.203125 160.464844 Z M 162.796875 200.726562 "/>
<path style=" stroke:none;fill-rule:nonzero;fill:rgb(42.352941%,38.823529%,100%);fill-opacity:1;" d="M 200.785156 204.652344 C 184.941406 197.472656 170.535156 205.273438 152.351562 211.527344 L 149.503906 159.480469 C 167.558594 149.53125 184.773438 146.847656 200.785156 154.570312 Z M 200.785156 204.652344 "/>
<path style=" stroke:none;fill-rule:nonzero;fill:rgb(100%,72.156863%,72.156863%);fill-opacity:1;" d="M 250.050781 102.851562 C 250.050781 120.164062 236.476562 134.199219 219.734375 134.199219 C 202.992188 134.199219 189.421875 120.164062 189.421875 102.851562 C 189.421875 85.535156 202.992188 71.503906 219.734375 71.503906 C 236.476562 71.503906 250.050781 85.535156 250.050781 102.851562 Z M 250.050781 102.851562 "/>
<path style=" stroke:none;fill-rule:nonzero;fill:rgb(18.431373%,18.039216%,25.490196%);fill-opacity:1;" d="M 256.003906 98.894531 C 225.988281 101.933594 203.117188 96.859375 188.5 82.40625 L 188.5 70.765625 L 253.457031 70.765625 Z M 256.003906 98.894531 "/>
</g>
</svg>
